<?xml version="1.0" encoding="iso-8859-1"?>
<!-- Generator: Adobe Illustrator 19.0.0, SVG Export Plug-In . SVG Version: 6.00 Build 0)  -->
<svg version="1.1" id="Capa_1" xmlns="http://www.w3.org/2000/svg" xmlns:xlink="http://www.w3.org/1999/xlink" x="0px" y="0px"
	 viewBox="0 0 511.998 511.998" style="enable-background:new 0 0 511.998 511.998;" xml:space="preserve">
<path style="fill:#44423E;" d="M503.916,397.661c0,16.188-13.122,29.311-29.309,29.311H37.393
	c-16.188,0-29.309-13.124-29.309-29.311V114.336c0-16.188,13.122-29.31,29.309-29.31h437.212c16.188,0,29.309,13.123,29.309,29.31
	v283.326L503.916,397.661L503.916,397.661z"/>
<circle style="fill:#E7E8E3;" cx="341.78" cy="256.42" r="118.57"/>
<g>
	<path style="fill:#202121;" d="M341.777,383.074c-69.837,0-126.653-56.816-126.653-126.653s56.816-126.653,126.653-126.653
		S468.43,186.582,468.43,256.421S411.613,383.074,341.777,383.074z M341.777,145.936c-60.922,0-110.484,49.563-110.484,110.484
		s49.563,110.484,110.484,110.484s110.484-49.563,110.484-110.484S402.698,145.936,341.777,145.936z"/>
	<path style="fill:#202121;" d="M474.607,435.057H37.393C16.775,435.057,0,418.282,0,397.661V114.336
		c0-20.62,16.775-37.394,37.393-37.394h437.212c20.619,0,37.393,16.775,37.393,37.394v31.459c0,4.466-3.618,8.084-8.084,8.084
		s-8.084-3.618-8.084-8.084v-31.459c0-11.704-9.522-21.226-21.225-21.226H37.393c-11.704,0-21.225,9.522-21.225,21.226v283.326
		c0,11.705,9.521,21.227,21.225,21.227h437.212c11.703,0,21.225-9.522,21.225-21.227V172.025c0-4.466,3.618-8.084,8.084-8.084
		c4.466,0,8.084,3.618,8.084,8.084v225.637C512,418.282,495.226,435.057,474.607,435.057z"/>
</g>
<g style="opacity:0.15;">
	<path style="fill:#202121;" d="M28.922,397.661V114.336c0-16.188,13.124-29.31,29.311-29.31h-20.84
		c-16.187,0-29.309,13.123-29.309,29.31v283.326c0,16.188,13.122,29.311,29.309,29.311h20.84
		C42.047,426.973,28.922,413.849,28.922,397.661z"/>
</g>
<path style="fill:#F7931A;" d="M340.257,338.355l5.891-23.565c24.106,4.286,42.314,2.676,49.816-19.284
	c6.425-17.676,0-27.853-12.857-34.281c9.641-2.141,16.605-8.571,18.211-20.89c2.675-17.14-10.714-26.246-29.46-32.135l5.892-23.032
	l-13.927-3.749l-5.355,22.497c-3.749-1.075-7.499-1.607-11.249-2.679l5.894-22.496l-13.927-3.748l-5.891,23.031
	c-3.214-0.538-6.427-1.609-9.109-2.145l-19.281-4.82l-3.749,14.996l10.176,2.68c5.358,1.069,6.429,4.821,6.429,8.032l-6.429,26.247
	c0.538,0,1.074,0,1.608,0.536c-0.535,0-1.07-0.536-1.608-0.536l-9.105,36.958c-0.536,1.609-2.676,4.286-6.426,3.214l-10.176-2.679
	l-6.964,16.07l18.209,4.819c3.751,1.075,6.964,1.607,10.177,2.678l-5.892,23.569l13.926,3.749l5.892-23.031
	c3.75,0.535,7.499,1.603,11.249,2.676l-5.89,23.03L340.257,338.355z M344.005,217.841c8.036,2.143,33.209,5.892,29.461,22.497
	c-3.75,16.068-28.387,8.036-36.424,5.891L344.005,217.841z M325.796,291.224l7.499-31.067c9.64,2.675,40.171,6.962,35.884,25.176
	C364.893,303.005,335.437,293.364,325.796,291.224z"/>
<g>
	<path style="fill:#202121;" d="M339.185,174.995l13.927,3.748l-5.894,22.496c3.749,1.071,7.5,1.604,11.249,2.679l5.355-22.497
		l13.927,3.749l-5.892,23.032c18.746,5.891,32.136,14.996,29.46,32.135c-1.606,12.318-8.57,18.749-18.211,20.89
		c12.857,6.429,19.282,16.604,12.857,34.281c-5.458,15.975-16.582,21.181-31.522,21.181c-5.595,0-11.725-0.731-18.294-1.898
		l-5.891,23.565l-13.925-4.285l5.89-23.03c-3.749-1.074-7.499-2.142-11.249-2.676l-5.892,23.031l-13.926-3.749l5.892-23.569
		c-3.213-1.07-6.428-1.603-10.177-2.677l-18.209-4.819l6.964-16.07l10.176,2.679c0.597,0.17,1.152,0.247,1.669,0.247
		c2.722,0,4.307-2.107,4.758-3.461l9.105-36.958c0.538,0,1.074,0.536,1.608,0.536c-0.535-0.536-1.07-0.536-1.608-0.536l6.429-26.247
		c0-3.211-1.07-6.963-6.429-8.032l-10.176-2.68l3.749-14.996l19.281,4.82c2.682,0.536,5.895,1.607,9.109,2.145L339.185,174.995
		 M358.142,250.134c7.132,0,13.553-2.216,15.323-9.798c3.748-16.605-21.425-20.354-29.461-22.497l-6.963,28.387
		C341.285,247.358,350.158,250.134,358.142,250.134 M351.877,295.771c8.156,0,15.347-2.379,17.302-10.438
		c4.287-18.214-26.245-22.5-35.884-25.176l-7.499,31.067C331.04,292.388,342.146,295.771,351.877,295.771 M339.185,158.826
		c-2.841,0-5.659,0.749-8.155,2.209c-3.734,2.18-6.437,5.766-7.509,9.953l-1.938,7.575l-12.758-3.188
		c-1.316-0.33-2.635-0.487-3.933-0.487c-7.245,0-13.836,4.904-15.673,12.25l-3.75,14.996c-2.147,8.587,3.008,17.303,11.568,19.558
		l2.697,0.709l-4.1,16.741c0,0.001-0.001,0.003-0.001,0.005l-6.312,25.622c-1.234-0.291-2.476-0.43-3.701-0.43
		c-6.313-0.001-12.22,3.714-14.832,9.741l-6.964,16.071c-1.872,4.322-1.768,9.245,0.289,13.484c2.056,4.238,5.857,7.37,10.41,8.575
		l12.967,3.432l-2.02,8.083c-2.137,8.553,2.97,17.241,11.482,19.534l13.926,3.749c1.382,0.373,2.796,0.556,4.202,0.556
		c0.712,0,1.423-0.047,2.128-0.14c1.311,0.895,2.776,1.61,4.369,2.101l13.925,4.286c1.555,0.477,3.159,0.715,4.756,0.715
		c2.757,0,5.497-0.705,7.944-2.086c3.866-2.181,6.666-5.855,7.743-10.161l2.408-9.635c2.122,0.144,4.148,0.216,6.089,0.216
		c29.526,0,41.732-17.349,46.771-31.97c5.194-14.394,4.364-27.363-2.05-37.755c4.284-5.557,7.086-12.484,8.163-20.503
		c2.005-13.226-1.965-25.058-11.491-34.226c-3.929-3.781-8.817-7.099-14.776-10.011l2.356-9.215
		c2.194-8.575-2.916-17.319-11.462-19.619l-13.927-3.749c-1.382-0.373-2.795-0.556-4.202-0.556c-0.556,0-1.109,0.028-1.662,0.085
		c-1.443-0.973-3.071-1.73-4.845-2.208l-13.927-3.749C342.005,159.009,340.592,158.826,339.185,158.826L339.185,158.826z"/>
	<path style="fill:#202121;" d="M173.625,156.716H60.389c-4.465,0-8.084-3.618-8.084-8.084s3.62-8.084,8.084-8.084h113.236
		c4.465,0,8.084,3.618,8.084,8.084C181.709,153.095,178.09,156.716,173.625,156.716z"/>
	<path style="fill:#202121;" d="M173.625,192.285H60.389c-4.465,0-8.084-3.618-8.084-8.084s3.62-8.084,8.084-8.084h113.236
		c4.465,0,8.084,3.618,8.084,8.084S178.09,192.285,173.625,192.285z"/>
</g>
<g>
</g>
<g>
</g>
<g>
</g>
<g>
</g>
<g>
</g>
<g>
</g>
<g>
</g>
<g>
</g>
<g>
</g>
<g>
</g>
<g>
</g>
<g>
</g>
<g>
</g>
<g>
</g>
<g>
</g>
</svg>
